<?xml version="1.0" encoding="utf-8"?>
<!-- Generator: Adobe Illustrator 27.5.0, SVG Export Plug-In . SVG Version: 6.00 Build 0)  -->
<svg version="1.1" id="Capa_1" xmlns="http://www.w3.org/2000/svg" xmlns:xlink="http://www.w3.org/1999/xlink" x="0px" y="0px"
	 viewBox="0 0 425.197 425.197" style="enable-background:new 0 0 425.197 425.197;" xml:space="preserve">
<path style="fill:#B2DBD1;" d="M59.275,341.983c0.788,0.247,1.577,0.494,2.366,0.741c1.254,0.392,2.378,0.429,3.381,0.168
	c36.087,55.793,136.889,77.565,213.878,56.537c87.065-23.78,141.482-102.232,121.545-175.229
	c-10.955-40.109-42.079-70.224-82.344-85.275c-0.267-14.992,2.975-44.216,28.599-66.896c1.988,1.597,4.513,2.554,7.261,2.554
	c6.408,0,11.602-5.194,11.602-11.602S360.367,51.38,353.96,51.38c-6.408,0-11.602,5.194-11.602,11.602
	c0,3.296,1.375,6.271,3.582,8.383c-25.602,22.722-29.047,51.907-28.843,67.19c-14.401-5.274-29.951-8.63-46.152-9.838
	c2.838-14.698,10-32.519,26.913-47.489c1.988,1.597,4.513,2.554,7.262,2.554c6.408,0,11.602-5.194,11.602-11.602
	c0-6.408-5.194-11.602-11.602-11.602c-6.408,0-11.602,5.194-11.602,11.602c0,3.296,1.375,6.271,3.582,8.383
	c-17.089,15.166-24.306,33.212-27.155,48.082c-19.105-1.318-39.097,0.349-59.161,5.374c-0.097,0.024-0.193,0.048-0.29,0.073
	c-0.128,0.032-0.257,0.065-0.385,0.097c-0.26,0.066-0.52,0.133-0.781,0.2c-0.132,0.034-0.263,0.068-0.395,0.102
	c-0.143,0.037-0.287,0.075-0.43,0.113c-0.189,0.05-0.379,0.1-0.568,0.15c-0.107,0.029-0.215,0.057-0.322,0.086
	c-0.296,0.079-0.592,0.159-0.889,0.24l-0.025,0.007c-0.367,0.1-0.733,0.202-1.1,0.304l-0.043,0.012
	c-0.359,0.1-0.718,0.202-1.077,0.304l-0.022,0.006c-4.461,1.275-8.915,2.715-13.347,4.31c18.741-20.993,43.38-69.753,47.443-81.806
	c5.392-15.994-3.202-33.332-19.197-38.724c-15.995-5.392-33.332,3.202-38.724,19.197c-3.414,10.125-10.955,49.659-11.973,78.678
	c-15.997-24.166-42.678-53.649-50.802-60.476c-12.923-10.859-32.201-9.186-43.06,3.737s-9.186,32.201,3.737,43.06
	c10.426,8.761,62.88,41.203,88.459,46.622C101.56,182.638,46.897,246.247,51.746,304.318c-9.423,4.129-16.562,3.664-25.324,5.959
	c-1.669,0.437-3.3,1.162-4.246,2.727C12.371,329.223,52.348,339.812,59.275,341.983z"/>
<path style="fill:#F5D571;" d="M400.444,224.201c-10.955-40.109-42.079-70.224-82.344-85.275c0.106,5.978,0.771,9.693,0.797,9.829
	c0.052,0.271-0.127,0.533-0.397,0.584l-0.095,0.009c-0.235,0-0.444-0.167-0.49-0.406c-0.027-0.14-0.733-4.08-0.817-10.387
	c-14.401-5.274-29.951-8.63-46.152-9.838c-3.176,16.449-0.937,28.986-0.889,29.237c0.052,0.271-0.127,0.533-0.397,0.584
	l-0.095,0.009c-0.235,0-0.444-0.167-0.49-0.406c-0.048-0.253-2.311-12.895,0.87-29.496c-16.432-1.133-33.521-0.049-50.747,3.471
	l0.004-0.009c-3.288,0.672-6.58,1.431-9.874,2.282c-0.132,0.034-0.263,0.068-0.395,0.102c-0.143,0.037-0.287,0.075-0.43,0.113
	c-0.189,0.05-0.379,0.1-0.568,0.15c-0.107,0.029-0.215,0.057-0.322,0.086c-0.296,0.079-0.592,0.159-0.889,0.24l-0.025,0.007
	c-0.367,0.1-0.733,0.202-1.1,0.304l-0.043,0.012c-0.359,0.1-0.718,0.202-1.077,0.304l-0.022,0.006
	c-4.462,1.275-8.917,2.717-13.351,4.314c-4.361,4.884-8.402,8.264-11.79,9.328c-1.809,1.615-4.942,2.028-9.018,1.52
	c-1.042-0.13-2.146-0.32-3.305-0.566C101.56,182.638,46.897,246.247,51.746,304.318c-9.423,4.129-16.562,3.664-25.324,5.959
	c-1.669,0.437-3.3,1.162-4.246,2.727c-9.805,16.219,30.172,26.809,37.099,28.98c0.788,0.247,1.577,0.494,2.366,0.741
	c1.254,0.392,2.378,0.429,3.381,0.168c12.999,20.097,34.394,35.778,60.049,46.635l0.014,0.006c0.897,0.379,1.799,0.753,2.706,1.121
	l0.038,0.015c0.285,0.115,0.57,0.23,0.855,0.344l0.059,0.024c0.604,0.241,1.21,0.479,1.817,0.715l0.008,0.003
	c0.297,0.115,0.594,0.229,0.892,0.343l0.049,0.019c0.92,0.352,1.845,0.697,2.775,1.037l0.006,0.002
	c30.878,11.279,66.84,15.992,101.414,13.499l0.003,0.003c13.757-0.992,27.291-3.129,40.2-6.445l-0.018-0.015
	c1.003-0.257,2.015-0.497,3.01-0.768C365.964,375.65,420.381,297.197,400.444,224.201z"/>
<path style="fill:#120E32;" d="M51.746,304.318c-9.423,4.129-16.562,3.664-25.324,5.959c-1.669,0.437-3.3,1.162-4.246,2.727
	c-9.805,16.219,30.172,26.809,37.099,28.98c0.788,0.247,1.577,0.494,2.366,0.741c1.254,0.392,2.378,0.429,3.381,0.168
	c-4.723-7.302-8.338-15.187-10.645-23.635C53.032,314.335,52.166,309.347,51.746,304.318z"/>
<path style="fill:#120E32;" d="M131.131,326.352c-19.87-51.048-17.709-105.775-1.514-153.325
	c-21.437,15.679-40.189,34.494-53.951,54.705c-3.839,33.879-0.352,69.294,12.806,103.097c8.345,21.44,19.973,40.673,33.907,57.534
	c19.061,8.42,40.613,14.114,62.897,16.92C162.295,383.971,143.251,357.49,131.131,326.352z"/>
<path style="fill:#120E32;" d="M179.317,149.356c-1.809,1.615-4.942,2.028-9.018,1.52c-19.954,50.094-24.243,109.634-2.745,164.866
	c14.507,37.268,38.929,67.867,68.154,90.915c13.757-0.992,27.291-3.129,40.2-6.445c-28.134-22.81-51.596-52.73-65.694-88.948
	c-23.584-60.588-16.131-126.357,8.988-179.157c-3.288,0.672-6.58,1.431-9.874,2.282c-0.132,0.034-0.263,0.068-0.395,0.102
	c-0.143,0.037-0.287,0.075-0.43,0.113c-0.189,0.05-0.379,0.1-0.568,0.15c-0.107,0.029-0.215,0.057-0.322,0.086
	c-0.296,0.079-0.592,0.159-0.889,0.24l-0.025,0.007c-0.367,0.1-0.733,0.202-1.1,0.304l-0.043,0.012
	c-0.359,0.1-0.718,0.202-1.077,0.304l-0.022,0.006c-4.462,1.275-8.917,2.717-13.351,4.314
	C186.746,144.912,182.705,148.292,179.317,149.356z"/>
<path style="fill:#120E32;" d="M269.074,158.142c0.046,0.239,0.255,0.406,0.49,0.406l0.095-0.009
	c0.27-0.052,0.449-0.313,0.397-0.584c-0.048-0.251-2.287-12.788,0.889-29.237c2.838-14.698,10-32.519,26.913-47.489
	c1.988,1.597,4.513,2.554,7.262,2.554c6.408,0,11.602-5.194,11.602-11.602c0-6.408-5.194-11.602-11.602-11.602
	c-6.408,0-11.602,5.194-11.602,11.602c0,3.296,1.375,6.271,3.582,8.383c-17.089,15.166-24.306,33.212-27.155,48.082
	C266.763,145.247,269.026,157.888,269.074,158.142z"/>
<path style="fill:#120E32;" d="M318.404,149.349l0.095-0.009c0.27-0.052,0.449-0.313,0.397-0.584
	c-0.026-0.136-0.69-3.851-0.797-9.829c-0.267-14.992,2.975-44.216,28.599-66.896c1.988,1.597,4.513,2.554,7.261,2.554
	c6.408,0,11.602-5.194,11.602-11.602S360.367,51.38,353.96,51.38c-6.408,0-11.602,5.194-11.602,11.602
	c0,3.296,1.375,6.271,3.582,8.383c-25.602,22.722-29.047,51.907-28.843,67.19c0.084,6.307,0.79,10.247,0.817,10.387
	C317.96,149.182,318.169,149.349,318.404,149.349z"/>
<path style="fill:#120E32;" d="M262.878,227.678c-10.678,1.722-17.941,11.76-16.222,22.421
	c1.719,10.661,11.769,17.907,22.448,16.185c10.678-1.722,17.941-11.76,16.222-22.421
	C283.607,233.202,273.556,225.956,262.878,227.678z"/>
<path style="fill:#F04C42;" d="M241.71,265.466c-8.578,1.383-14.66,7.917-13.583,14.593c1.077,6.676,8.904,10.967,17.482,9.583
	c8.578-1.383,14.66-7.917,13.583-14.593C258.115,268.373,250.288,264.082,241.71,265.466z"/>
<path style="fill:#120E32;" d="M372.274,230.201c-1.719-10.661-11.769-17.907-22.448-16.185
	c-10.678,1.722-17.941,11.76-16.222,22.421c1.719,10.661,11.769,17.907,22.448,16.185
	C366.731,250.9,373.993,240.862,372.274,230.201z"/>
<path style="fill:#F04C42;" d="M381.8,243.233c-8.578,1.383-14.66,7.917-13.583,14.593c1.077,6.676,8.904,10.966,17.482,9.583
	c8.578-1.383,14.66-7.917,13.583-14.593C398.206,246.14,390.379,241.85,381.8,243.233z"/>
<path style="fill:#120E32;" d="M320.599,254.334c-0.545,0.088-0.916,0.601-0.828,1.146c0.657,4.075-1.62,7.843-5.075,8.4
	c-3.47,0.558-6.804-2.305-7.46-6.379c-0.088-0.546-0.605-0.92-1.147-0.828c-0.545,0.088-0.916,0.601-0.828,1.147
	c0.761,4.715,4.474,8.13,8.574,8.13c0.39,0,0.784-0.031,1.179-0.095c4.544-0.733,7.564-5.53,6.732-10.693
	C321.657,254.617,321.145,254.244,320.599,254.334z"/>
<path style="fill:#BEE0D8;" d="M179.317,149.356c-1.373,0.431-2.639,0.483-3.775,0.1c-5.869-1.979-7.472-15.267-6.882-32.088
	c-15.997-24.166-42.678-53.649-50.802-60.476c-12.923-10.859-32.201-9.186-43.06,3.737s-9.186,32.201,3.737,43.06
	c10.426,8.761,62.88,41.203,88.459,46.622c1.159,0.246,2.263,0.436,3.305,0.566C174.374,151.384,177.508,150.971,179.317,149.356z"
	/>
<path style="fill:#FFE48F;" d="M223.953,167.257c4.294,3.51,13.205-0.289,19.902-8.483c6.698-8.195,8.646-17.683,4.352-21.193
	c-4.294-3.51-13.205,0.289-19.902,8.483C221.607,154.259,219.659,163.747,223.953,167.257z"/>
<path style="fill:#FFE48F;" d="M222.384,175.52c-5.434-1.107-11.553,6.402-13.666,16.773c-2.113,10.37,0.579,19.675,6.013,20.783
	c5.434,1.107,11.553-6.402,13.666-16.773C230.51,185.932,227.818,176.627,222.384,175.52z"/>
<path style="fill:#FFE48F;" d="M233.909,176.979c-1.411,6.924,3.207,13.711,10.315,15.16c7.108,1.449,14.014-2.99,15.425-9.914
	c1.411-6.924-3.207-13.711-10.315-15.16C242.226,165.616,235.32,170.055,233.909,176.979z"/>
</svg>
